<svg width="16" height="16" viewBox="0 0 16 16" fill="none" xmlns="http://www.w3.org/2000/svg">
<g id="github-brands" clip-path="url(#clip0_4942_7161)">
<path id="Vector" d="M5.32957 12.4188C5.32957 12.4813 5.25749 12.5313 5.16662 12.5313C5.06321 12.5406 4.99114 12.4906 4.99114 12.4188C4.99114 12.3563 5.06321 12.3063 5.15409 12.3063C5.24809 12.2969 5.32957 12.3469 5.32957 12.4188ZM4.35501 12.2781C4.33307 12.3406 4.39574 12.4125 4.48975 12.4313C4.57123 12.4625 4.66524 12.4313 4.68404 12.3688C4.70284 12.3063 4.6433 12.2344 4.54929 12.2063C4.46782 12.1844 4.37694 12.2156 4.35501 12.2781ZM5.74008 12.225C5.6492 12.2469 5.58653 12.3063 5.59593 12.3781C5.60533 12.4406 5.6868 12.4813 5.78081 12.4594C5.87169 12.4375 5.93436 12.3781 5.92496 12.3156C5.91556 12.2563 5.83095 12.2156 5.74008 12.225ZM7.80201 0.25C3.45565 0.25 0.130859 3.54063 0.130859 7.875C0.130859 11.3406 2.31814 14.3063 5.44238 15.35C5.84349 15.4219 5.9845 15.175 5.9845 14.9719C5.9845 14.7781 5.9751 13.7094 5.9751 13.0531C5.9751 13.0531 3.78155 13.5219 3.32091 12.1219C3.32091 12.1219 2.96367 11.2125 2.44975 10.9781C2.44975 10.9781 1.73215 10.4875 2.49989 10.4969C2.49989 10.4969 3.28017 10.5594 3.70948 11.3031C4.39574 12.5094 5.54579 12.1625 5.9939 11.9563C6.06597 11.4563 6.26966 11.1094 6.49528 10.9031C4.74358 10.7094 2.9762 10.4563 2.9762 7.45C2.9762 6.59063 3.21436 6.15938 3.71574 5.60938C3.63427 5.40625 3.36791 4.56875 3.79722 3.4875C4.45215 3.28438 5.95943 4.33125 5.95943 4.33125C6.58616 4.15625 7.25989 4.06563 7.92736 4.06563C8.59482 4.06563 9.26855 4.15625 9.89528 4.33125C9.89528 4.33125 11.4026 3.28125 12.0575 3.4875C12.4868 4.57188 12.2204 5.40625 12.139 5.60938C12.6404 6.1625 12.9474 6.59375 12.9474 7.45C12.9474 10.4656 11.1017 10.7063 9.35003 10.9031C9.63832 11.15 9.88275 11.6188 9.88275 12.3531C9.88275 13.4063 9.87335 14.7094 9.87335 14.9656C9.87335 15.1688 10.0175 15.4156 10.4155 15.3438C13.5491 14.3063 15.6737 11.3406 15.6737 7.875C15.6737 3.54063 12.1484 0.25 7.80201 0.25ZM3.17676 11.0281C3.13602 11.0594 3.14542 11.1313 3.19869 11.1906C3.24883 11.2406 3.32091 11.2625 3.36164 11.2219C3.40238 11.1906 3.39298 11.1188 3.33971 11.0594C3.28957 11.0094 3.2175 10.9875 3.17676 11.0281ZM2.83832 10.775C2.81639 10.8156 2.84773 10.8656 2.9104 10.8969C2.96054 10.9281 3.02321 10.9188 3.04515 10.875C3.06708 10.8344 3.03574 10.7844 2.97307 10.7531C2.9104 10.7344 2.86026 10.7438 2.83832 10.775ZM3.85362 11.8875C3.80349 11.9281 3.82229 12.0219 3.89436 12.0813C3.96644 12.1531 4.05731 12.1625 4.09805 12.1125C4.13879 12.0719 4.11998 11.9781 4.05731 11.9188C3.98837 11.8469 3.89436 11.8375 3.85362 11.8875ZM3.49639 11.4281C3.44625 11.4594 3.44625 11.5406 3.49639 11.6125C3.54653 11.6844 3.63114 11.7156 3.67187 11.6844C3.72201 11.6438 3.72201 11.5625 3.67187 11.4906C3.628 11.4188 3.54653 11.3875 3.49639 11.4281Z" fill="white"/>
</g>
<defs>
<clipPath id="clip0_4942_7161">
<rect width="15.5429" height="16" fill="white" transform="translate(0.130859)"/>
</clipPath>
</defs>
</svg>
