<svg width="16" height="16" viewBox="0 0 16 16" fill="none" xmlns="http://www.w3.org/2000/svg">
<path d="M0.571429 3.29199H15.4286C15.7442 3.29199 16 3.03084 16 2.70866V1.25033C16 0.928143 15.7442 0.666992 15.4286 0.666992H0.571429C0.255821 0.666992 0 0.928143 0 1.25033V2.70866C0 3.03084 0.255821 3.29199 0.571429 3.29199ZM0.571429 9.12533H15.4286C15.7442 9.12533 16 8.86417 16 8.54199V7.08366C16 6.76148 15.7442 6.50033 15.4286 6.50033H0.571429C0.255821 6.50033 0 6.76148 0 7.08366V8.54199C0 8.86417 0.255821 9.12533 0.571429 9.12533ZM0.571429 14.9587H15.4286C15.7442 14.9587 16 14.6975 16 14.3753V12.917C16 12.5948 15.7442 12.3337 15.4286 12.3337H0.571429C0.255821 12.3337 0 12.5948 0 12.917V14.3753C0 14.6975 0.255821 14.9587 0.571429 14.9587Z" fill="white"/>
</svg>
