<svg width="16" height="16" viewBox="0 0 16 16" fill="none" xmlns="http://www.w3.org/2000/svg">
<g clip-path="url(#clip0_4992_7722)">
<path d="M5.33152 12.4188C5.33152 12.4813 5.25945 12.5313 5.16857 12.5313C5.06516 12.5406 4.99309 12.4906 4.99309 12.4188C4.99309 12.3563 5.06516 12.3063 5.15604 12.3063C5.25005 12.2969 5.33152 12.3469 5.33152 12.4188ZM4.35696 12.2781C4.33502 12.3406 4.3977 12.4125 4.49171 12.4313C4.57318 12.4625 4.66719 12.4313 4.68599 12.3688C4.70479 12.3063 4.64525 12.2344 4.55125 12.2063C4.46977 12.1844 4.3789 12.2156 4.35696 12.2781ZM5.74203 12.225C5.65115 12.2469 5.58848 12.3063 5.59788 12.3781C5.60728 12.4406 5.68876 12.4813 5.78277 12.4594C5.87364 12.4375 5.93631 12.3781 5.92691 12.3156C5.91751 12.2563 5.8329 12.2156 5.74203 12.225ZM7.80396 0.25C3.45761 0.25 0.132812 3.54063 0.132812 7.875C0.132812 11.3406 2.32009 14.3063 5.44433 15.35C5.84544 15.4219 5.98645 15.175 5.98645 14.9719C5.98645 14.7781 5.97705 13.7094 5.97705 13.0531C5.97705 13.0531 3.7835 13.5219 3.32286 12.1219C3.32286 12.1219 2.96562 11.2125 2.45171 10.9781C2.45171 10.9781 1.7341 10.4875 2.50184 10.4969C2.50184 10.4969 3.28212 10.5594 3.71143 11.3031C4.3977 12.5094 5.54774 12.1625 5.99585 11.9563C6.06793 11.4563 6.27161 11.1094 6.49724 10.9031C4.74553 10.7094 2.97816 10.4563 2.97816 7.45C2.97816 6.59063 3.21631 6.15938 3.7177 5.60938C3.63622 5.40625 3.36986 4.56875 3.79917 3.4875C4.4541 3.28438 5.96138 4.33125 5.96138 4.33125C6.58811 4.15625 7.26184 4.06563 7.92931 4.06563C8.59678 4.06563 9.27051 4.15625 9.89724 4.33125C9.89724 4.33125 11.4045 3.28125 12.0594 3.4875C12.4888 4.57188 12.2224 5.40625 12.1409 5.60938C12.6423 6.1625 12.9494 6.59375 12.9494 7.45C12.9494 10.4656 11.1037 10.7063 9.35198 10.9031C9.64028 11.15 9.8847 11.6188 9.8847 12.3531C9.8847 13.4063 9.8753 14.7094 9.8753 14.9656C9.8753 15.1688 10.0194 15.4156 10.4174 15.3438C13.5511 14.3063 15.6757 11.3406 15.6757 7.875C15.6757 3.54063 12.1503 0.25 7.80396 0.25ZM3.17871 11.0281C3.13797 11.0594 3.14737 11.1313 3.20065 11.1906C3.25078 11.2406 3.32286 11.2625 3.3636 11.2219C3.40433 11.1906 3.39493 11.1188 3.34166 11.0594C3.29152 11.0094 3.21945 10.9875 3.17871 11.0281ZM2.84028 10.775C2.81834 10.8156 2.84968 10.8656 2.91235 10.8969C2.96249 10.9281 3.02516 10.9188 3.0471 10.875C3.06903 10.8344 3.0377 10.7844 2.97502 10.7531C2.91235 10.7344 2.86221 10.7438 2.84028 10.775ZM3.85558 11.8875C3.80544 11.9281 3.82424 12.0219 3.89631 12.0813C3.96839 12.1531 4.05926 12.1625 4.1 12.1125C4.14074 12.0719 4.12194 11.9781 4.05926 11.9188C3.99032 11.8469 3.89631 11.8375 3.85558 11.8875ZM3.49834 11.4281C3.4482 11.4594 3.4482 11.5406 3.49834 11.6125C3.54848 11.6844 3.63309 11.7156 3.67383 11.6844C3.72396 11.6438 3.72396 11.5625 3.67383 11.4906C3.62996 11.4188 3.54848 11.3875 3.49834 11.4281Z" fill="white"/>
</g>
<defs>
<clipPath id="clip0_4992_7722">
<rect width="15.5429" height="16" fill="white" transform="translate(0.132812)"/>
</clipPath>
</defs>
</svg>
