<svg width="97" height="24" viewBox="0 0 97 24" fill="none" xmlns="http://www.w3.org/2000/svg">
<g clip-path="url(#clip0_4992_7730)">
<path fill-rule="evenodd" clip-rule="evenodd" d="M9.50141 0L23.0896 0.607306L28.5916 12.8297L20.8296 24L7.16751 23.1252L1.56641 9.88237L9.50141 0ZM19.4636 7.04523L9.61551 11.3475L18.0346 17.8565L19.4636 7.04523ZM18.3236 4.88942L10.4532 1.50108L8.79991 8.62522L18.3236 4.88942ZM16.3285 19.4943L7.77521 13.3873L7.98211 21.6626L16.3285 19.4943ZM27.2256 12.8027L21.3966 6.88869L19.8576 18.261L27.2256 12.8027ZM18.3336 20.8245L11.1203 22.7097L19.6036 23.2528L18.3336 20.8245ZM26.0856 15.4858L19.7716 20.1893L21.0266 22.6411L26.0856 15.4858ZM23.0996 2.315L21.8726 4.83252L26.4376 9.47253L23.0996 2.315ZM21.5716 1.11028L13.5547 0.784918L20.1676 3.67694L21.5716 1.11028ZM8.33081 2.27448L2.71581 9.36387L6.46991 10.159L8.33081 2.27448ZM6.24351 11.5497L2.47131 10.7511L6.40731 20.0227L6.24351 11.5497Z" fill="white"/>
<path fill-rule="evenodd" clip-rule="evenodd" d="M37.9475 11.1542H37.4915V7.09533H36.2695V16.6203H37.4915V12.1593H37.9115L41.7605 16.8579L42.6905 16.0718L38.9875 11.5927L42.1435 7.58915L41.2125 6.85791L37.9475 11.1542ZM48.5835 7.09525H47.3605V16.6203H53.5615V15.5232H48.5835V7.09525ZM58.0665 7.09525H63.9945V8.19215H59.2885V11.0444H63.1735V12.1412H59.2885V15.5233H63.9945V16.6204H58.0665V7.09525ZM72.0935 7.09525H68.8645V16.6201H70.0875V12.543H71.8565L74.2815 16.8577L75.3395 16.2178L73.0055 12.3604C74.1535 12.0129 74.9375 10.8612 74.9375 9.69127C74.9375 7.84484 73.6795 7.09525 72.0935 7.09525ZM73.6605 9.69127C73.6605 10.7701 72.8765 11.4464 71.6925 11.4464H70.0875V8.19215H72.0555C73.1505 8.19215 73.6605 8.83209 73.6605 9.69127ZM85.9385 11.8664C85.9385 12.6343 85.8835 16.7843 82.5635 16.7843C81.0315 16.7843 79.1895 15.6875 79.1895 11.8664C79.1895 8.06373 80.9955 6.93034 82.5635 6.93034C84.0775 6.93034 85.9385 8.02726 85.9385 11.8664ZM80.4665 11.8664C80.4665 13.2558 80.7215 15.6325 82.5635 15.6325C84.4065 15.6325 84.6615 13.2558 84.6615 11.8664C84.6615 10.4588 84.4065 8.0821 82.5635 8.0821C80.7215 8.0821 80.4665 10.4588 80.4665 11.8664ZM93.5995 15.6325C92.3225 15.6325 91.7565 14.7735 91.5195 13.6033L90.4255 13.9505C90.7175 15.6506 91.8295 16.7842 93.5995 16.7842C95.3505 16.7842 96.6095 15.7603 96.6095 13.9505C96.6095 12.9634 96.1525 12.1955 95.2955 11.7201L93.2705 10.8243C92.5415 10.4954 91.9935 10.2394 91.9935 9.34345C91.9935 8.48441 92.7605 8.0821 93.5445 8.0821C94.5845 8.0821 95.0765 8.74027 95.2955 9.67253L96.4635 9.32521C96.0805 7.84448 95.1495 6.93034 93.5625 6.93034C92.0665 6.93034 90.7715 7.82624 90.7715 9.43491C90.7715 11.0689 91.8645 11.5168 93.1085 12.0268C93.2285 12.076 93.3495 12.1258 93.4715 12.1773C93.5475 12.2087 93.6245 12.2395 93.7005 12.2702C94.5565 12.6149 95.3865 12.9494 95.3865 14.0237C95.3865 15.0842 94.6025 15.6325 93.5995 15.6325Z" fill="white"/>
</g>
<defs>
<clipPath id="clip0_4992_7730">
<rect width="96" height="24" fill="white" transform="translate(0.972656)"/>
</clipPath>
</defs>
</svg>
