<svg width="156" height="48" viewBox="0 0 156 48" fill="none" xmlns="http://www.w3.org/2000/svg">
<g id="POHv2-logo-white">
<path id="Vector" d="M42.0002 27.5085C41.8807 27.2404 41.7332 26.9856 41.5602 26.7485C40.5202 25.3885 39.4402 24.0485 38.3602 22.7485C37.6417 21.9189 37.2694 20.8449 37.3202 19.7485C37.5313 17.5676 37.4506 15.3682 37.0802 13.2085C36.719 10.9132 35.7212 8.76511 34.2002 7.00854C32.5432 5.12367 30.5035 3.61362 28.217 2.57902C25.9305 1.54442 23.4498 1.00903 20.9402 1.00854C18.2508 0.930679 15.5726 1.3861 13.0602 2.34854C9.2882 3.69275 6.0066 6.13828 3.64016 9.36854C2.11226 11.5057 1.24321 14.0434 1.14016 16.6685C1.11515 18.6485 1.40545 20.6198 2.00016 22.5085C2.72016 24.7485 3.68016 26.9085 4.56016 29.0885C5.48016 31.1817 6.28143 33.3251 6.96016 35.5085C7.88214 38.4103 7.84005 41.5326 6.84016 44.4085C6.84016 44.4085 6.84016 44.5485 6.84016 44.6685C6.76794 44.8354 6.7327 45.016 6.73688 45.1978C6.74106 45.3797 6.78454 45.5584 6.86435 45.7218C6.94416 45.8853 7.0584 46.0295 7.19923 46.1445C7.34005 46.2596 7.50412 46.3429 7.68016 46.3885C10.4634 47.0859 13.3343 47.3689 16.2002 47.2285C19.0151 47.3615 21.835 47.1058 24.5802 46.4685C25.0197 46.3298 25.41 46.0674 25.7043 45.7127C25.9987 45.358 26.1847 44.9261 26.2402 44.4685C26.331 44.0232 26.4649 43.5879 26.6402 43.1685C26.8284 42.7398 27.1333 42.3725 27.5202 42.1085C28.112 41.7156 28.8099 41.5132 29.5202 41.5285C30.5548 41.5354 31.5863 41.6425 32.6002 41.8485C33.5002 41.9685 34.3402 42.1085 35.2202 42.1685C35.6331 42.2116 36.0504 42.1581 36.4391 42.0123C36.8278 41.8666 37.1774 41.6325 37.4602 41.3285C37.9403 40.8321 38.2703 40.21 38.4118 39.5341C38.5534 38.8581 38.5008 38.1559 38.2602 37.5085C38.1608 37.2338 38.1438 36.9361 38.2114 36.6518C38.2789 36.3676 38.4279 36.1093 38.6402 35.9085C38.8851 35.6775 39.1457 35.4637 39.4202 35.2685C39.5552 35.1635 39.661 35.0257 39.7275 34.8681C39.7941 34.7105 39.8191 34.5385 39.8002 34.3685C39.773 34.1955 39.6989 34.0333 39.5861 33.8993C39.4733 33.7653 39.326 33.6648 39.1602 33.6085C39.1602 33.4685 38.8402 33.3485 39.1602 33.2885C39.4802 33.2285 39.8602 33.2885 40.0402 32.8285C40.1667 32.6616 40.2352 32.458 40.2352 32.2485C40.2352 32.0391 40.1667 31.8354 40.0402 31.6685C39.9202 31.4885 39.7802 31.3485 39.6602 31.1685C39.5762 31.0549 39.519 30.9239 39.4927 30.7851C39.4664 30.6464 39.4717 30.5035 39.5082 30.367C39.5447 30.2306 39.6115 30.1041 39.7036 29.9971C39.7957 29.89 39.9107 29.805 40.0402 29.7485L40.8202 29.3685C41.1402 29.1885 41.5202 29.0485 41.8402 28.8685C42.0105 28.6898 42.1183 28.4605 42.1471 28.2152C42.176 27.97 42.1244 27.722 42.0002 27.5085ZM19.7002 32.3485L13.3002 22.8885L19.7002 26.8885L26.1002 22.8885L19.7002 32.3485ZM19.7002 25.7085L13.3002 21.7085L19.7002 10.5085L26.1002 21.7085L19.7002 25.7085Z" fill="white"/>
<path id="Vector_2" d="M61.0605 13.481V19.061H59.0605V5.281H61.4406C62.3185 5.25438 63.1968 5.32143 64.0605 5.481C64.6498 5.65867 65.195 5.95852 65.6606 6.361C66.0266 6.75082 66.3108 7.21007 66.4963 7.71162C66.6818 8.21316 66.7649 8.74681 66.7405 9.281C66.7659 9.83919 66.6638 10.3958 66.4421 10.9087C66.2203 11.4215 65.8846 11.8772 65.4605 12.241C64.4719 12.9966 63.2419 13.3663 62.0005 13.281L60.9806 13.401L61.0605 13.481ZM61.0605 11.481H61.8405C63.8405 11.481 64.7206 10.781 64.7206 9.321C64.7206 7.861 63.6205 7.281 61.7005 7.281H60.9806V11.561L61.0605 11.481ZM73.4205 13.081L77.5806 18.921H75.0005L71.0005 13.341H70.6206V18.921H68.6206V5.281H71.0005C72.3768 5.18912 73.7455 5.54711 74.9006 6.301C75.3379 6.66703 75.6819 7.1317 75.9045 7.65675C76.127 8.18181 76.2216 8.75222 76.1805 9.321C76.1867 10.2185 75.8908 11.092 75.3405 11.801C75.1189 12.1533 74.8268 12.4559 74.4826 12.69C74.1385 12.924 73.7496 13.0844 73.3405 13.161L73.4205 13.081ZM70.9205 11.561H71.5605C73.5605 11.561 74.4406 10.841 74.4406 9.321C74.4406 7.801 73.4005 7.281 71.5406 7.281H70.8405L70.9205 11.561ZM78.7405 11.941C78.7294 11.0362 78.9028 10.1386 79.2501 9.303C79.5974 8.46742 80.1113 7.71137 80.7606 7.081C81.4311 6.43132 82.2231 5.92026 83.0914 5.57707C83.9596 5.23388 84.8871 5.06531 85.8205 5.081C86.7547 5.07308 87.6806 5.25716 88.5407 5.62184C89.4008 5.98652 90.1768 6.52402 90.8205 7.201C91.4924 7.84347 92.0254 8.61686 92.3866 9.47341C92.7478 10.33 92.9295 11.2515 92.9205 12.181C92.9275 13.1132 92.745 14.0371 92.384 14.8966C92.023 15.7562 91.4911 16.5333 90.8205 17.181C90.15 17.8307 89.358 18.3417 88.4897 18.6849C87.6215 19.0281 86.694 19.1967 85.7606 19.181C84.0313 19.2025 82.3584 18.5662 81.0806 17.401C80.2934 16.7484 79.666 15.9242 79.2466 14.9917C78.8271 14.0591 78.6266 13.043 78.6606 12.021L78.7405 11.941ZM80.7405 12.061C80.7219 12.7633 80.8491 13.4618 81.1142 14.1125C81.3793 14.7631 81.7764 15.3517 82.2805 15.841C83.1959 16.7679 84.438 17.2992 85.7405 17.321C86.407 17.3341 87.069 17.2095 87.6851 16.9548C88.3011 16.7001 88.8579 16.3209 89.3205 15.841C89.7966 15.3629 90.1726 14.7949 90.4267 14.1699C90.6808 13.5449 90.8079 12.8756 90.8006 12.201C90.8164 11.5223 90.6932 10.8475 90.4387 10.2181C90.1842 9.58868 89.8037 9.01797 89.3205 8.541C88.8615 8.05769 88.3049 7.67756 87.6876 7.42584C87.0704 7.17412 86.4067 7.05658 85.7405 7.081C85.0758 7.06766 84.4154 7.19028 83.7998 7.44134C83.1842 7.69241 82.6264 8.06661 82.1606 8.541C81.6788 9.00543 81.2998 9.56585 81.0483 10.186C80.7968 10.8061 80.6783 11.4722 80.7005 12.141L80.7405 12.061ZM94.9006 11.941C94.8758 11.0243 95.0407 10.1123 95.3849 9.26223C95.729 8.41217 96.245 7.64235 96.9006 7.001C97.5711 6.35132 98.3631 5.84026 99.2314 5.49707C100.1 5.15388 101.027 4.98531 101.961 5.001C102.895 4.99308 103.821 5.17716 104.681 5.54184C105.541 5.90652 106.317 6.44402 106.961 7.121C107.632 7.76347 108.165 8.53686 108.527 9.39341C108.888 10.25 109.069 11.1715 109.061 12.101C109.068 13.0332 108.885 13.9571 108.524 14.8166C108.163 15.6762 107.631 16.4533 106.961 17.101C105.66 18.4547 103.877 19.2385 102.001 19.281C100.11 19.2704 98.3015 18.5108 96.9706 17.1686C95.6396 15.8264 94.8952 14.0112 94.9006 12.121V11.941ZM96.9006 12.061C96.8819 12.7633 97.0091 13.4618 97.2742 14.1125C97.5393 14.7631 97.9364 15.3517 98.4406 15.841C99.3559 16.7679 100.598 17.2992 101.901 17.321C102.567 17.3341 103.229 17.2095 103.845 16.9548C104.461 16.7001 105.018 16.3209 105.481 15.841C106.427 14.8671 106.952 13.5592 106.941 12.201C106.959 11.5237 106.839 10.8498 106.588 10.2205C106.337 9.59114 105.96 9.01966 105.481 8.541C105.035 8.06743 104.495 7.69274 103.896 7.44122C103.296 7.18971 102.651 7.06698 102.001 7.081C101.335 7.07143 100.674 7.19773 100.058 7.4522C99.4426 7.70666 98.8854 8.08395 98.4205 8.561C97.9334 9.02016 97.5468 9.5754 97.2851 10.1916C97.0235 10.8078 96.8925 11.4716 96.9006 12.141V12.061ZM118.481 7.281H113.741V10.541H118.341V12.541H113.741V19.021H111.741V5.281H118.541V7.281H118.481ZM125.761 12.021C125.752 11.0957 125.937 10.1787 126.302 9.32834C126.667 8.47795 127.204 7.71267 127.881 7.081C128.55 6.43042 129.342 5.91878 130.211 5.57553C131.079 5.23228 132.007 5.06421 132.941 5.081C133.882 5.05964 134.817 5.23342 135.688 5.59139C136.559 5.94937 137.346 6.48379 138.001 7.161C138.654 7.81199 139.169 8.58921 139.513 9.44536C139.856 10.3015 140.022 11.2187 140.001 12.141C140.021 13.0661 139.854 13.9857 139.51 14.8448C139.166 15.7039 138.653 16.4849 138.001 17.141C137.33 17.7907 136.538 18.3017 135.67 18.6449C134.801 18.9881 133.874 19.1567 132.941 19.141C131.21 19.1686 129.535 18.5315 128.261 17.361C127.465 16.7195 126.827 15.9052 126.394 14.9798C125.96 14.0545 125.744 13.0426 125.761 12.021ZM127.761 12.141C127.734 13.4995 128.243 14.8137 129.18 15.7985C130.116 16.7833 131.402 17.3591 132.761 17.401C133.427 17.4141 134.089 17.2895 134.705 17.0348C135.321 16.7801 135.878 16.4009 136.341 15.921C136.814 15.442 137.187 14.8733 137.438 14.2482C137.688 13.6232 137.812 12.9544 137.801 12.281C137.819 11.6037 137.699 10.9298 137.448 10.3005C137.197 9.67114 136.82 9.09966 136.341 8.621C135.881 8.13769 135.325 7.75756 134.708 7.50584C134.09 7.25412 133.427 7.13658 132.761 7.161C132.093 7.14844 131.43 7.27134 130.811 7.52228C130.192 7.77321 129.631 8.14698 129.161 8.621C128.71 9.0864 128.36 9.63838 128.129 10.2435C127.899 10.8485 127.794 11.4941 127.821 12.141H127.761ZM149.321 7.281H144.581V10.541H149.201V12.541H144.581V19.021H142.581V5.281H149.401V7.281H149.321ZM61.0605 34.161H66.9406V28.861H68.9406V42.481H66.9406V36.081H61.0605V42.421H59.0605V28.781H61.0605V34.161ZM74.3605 28.861V37.121C74.2964 38.0129 74.4982 38.9038 74.9406 39.681C75.2118 40.0533 75.5712 40.3524 75.9867 40.5514C76.4021 40.7504 76.8605 40.843 77.3205 40.821C77.7861 40.8409 78.2494 40.7476 78.6709 40.549C79.0924 40.3505 79.4595 40.0526 79.7405 39.681C80.1829 38.9038 80.3847 38.0129 80.3205 37.121V28.861H82.3205V37.681C82.3467 38.3399 82.2416 38.9974 82.0116 39.6154C81.7816 40.2334 81.4311 40.7995 80.9806 41.281C80.5056 41.7861 79.9324 42.1885 79.296 42.4637C78.6597 42.7389 77.9738 42.8809 77.2805 42.881C76.5888 42.8904 75.9029 42.7526 75.2685 42.4768C74.634 42.2009 74.0655 41.7933 73.6005 41.281C73.15 40.7995 72.7995 40.2334 72.5695 39.6154C72.3394 38.9974 72.2344 38.3399 72.2606 37.681V28.861H74.3605ZM85.1805 42.481L88.0005 27.821L92.6805 38.461L97.5406 27.821L100.101 42.481H98.0005L96.7206 34.221L92.7206 43.121L88.8205 34.221L87.3405 42.481H85.1805ZM110.981 39.161H105.101L103.561 42.421H101.321L108.101 28.021L114.641 42.421H112.401L110.981 39.161ZM110.221 37.161L108.221 32.481L106.001 37.281L110.221 37.161ZM116.221 42.341V27.741L126.221 38.121V28.721H128.221V43.281L118.221 32.901V42.441H116.221V42.341ZM133.621 28.781V42.481H131.621V28.861L133.621 28.781ZM140.601 30.781V42.481H138.601V30.781H135.501V28.781H143.821V30.781H140.601ZM149.241 36.601L144.761 28.861H147.141L150.281 34.301L153.401 28.861H155.781L151.301 36.601V42.481H149.261V36.601H149.241Z" fill="white"/>
</g>
</svg>
