<svg width="42" height="47" viewBox="0 0 42 47" fill="none" xmlns="http://www.w3.org/2000/svg">
<path id="Vector" d="M41.0002 26.5085C40.8807 26.2404 40.7332 25.9856 40.5602 25.7485C39.5202 24.3885 38.4402 23.0485 37.3602 21.7485C36.6417 20.9189 36.2694 19.8449 36.3202 18.7485C36.5313 16.5676 36.4506 14.3682 36.0802 12.2085C35.719 9.91315 34.7212 7.76511 33.2002 6.00854C31.5432 4.12367 29.5035 2.61362 27.217 1.57902C24.9305 0.544419 22.4498 0.00903042 19.9402 0.00853531C17.2508 -0.0693215 14.5726 0.386103 12.0602 1.34854C8.2882 2.69275 5.0066 5.13828 2.64016 8.36854C1.11226 10.5057 0.24321 13.0434 0.14016 15.6685C0.115152 17.6485 0.405451 19.6198 1.00016 21.5085C1.72016 23.7485 2.68016 25.9085 3.56016 28.0885C4.48016 30.1817 5.28143 32.3251 5.96016 34.5085C6.88214 37.4103 6.84005 40.5326 5.84016 43.4085C5.84016 43.4085 5.84016 43.5485 5.84016 43.6685C5.76794 43.8354 5.7327 44.016 5.73688 44.1978C5.74106 44.3797 5.78454 44.5584 5.86435 44.7218C5.94416 44.8853 6.0584 45.0295 6.19923 45.1445C6.34005 45.2596 6.50412 45.3429 6.68016 45.3885C9.46342 46.0859 12.3343 46.3689 15.2002 46.2285C18.0151 46.3615 20.835 46.1058 23.5802 45.4685C24.0197 45.3298 24.41 45.0674 24.7043 44.7127C24.9987 44.358 25.1847 43.9261 25.2402 43.4685C25.331 43.0232 25.4649 42.5879 25.6402 42.1685C25.8284 41.7398 26.1333 41.3725 26.5202 41.1085C27.112 40.7156 27.8099 40.5132 28.5202 40.5285C29.5548 40.5354 30.5863 40.6425 31.6002 40.8485C32.5002 40.9685 33.3402 41.1085 34.2202 41.1685C34.6331 41.2116 35.0504 41.1581 35.4391 41.0123C35.8278 40.8666 36.1774 40.6325 36.4602 40.3285C36.9403 39.8321 37.2703 39.21 37.4118 38.5341C37.5534 37.8581 37.5008 37.1559 37.2602 36.5085C37.1608 36.2338 37.1438 35.9361 37.2114 35.6518C37.2789 35.3676 37.4279 35.1093 37.6402 34.9085C37.8851 34.6775 38.1457 34.4637 38.4202 34.2685C38.5552 34.1635 38.661 34.0257 38.7275 33.8681C38.7941 33.7105 38.8191 33.5385 38.8002 33.3685C38.773 33.1955 38.6989 33.0333 38.5861 32.8993C38.4733 32.7653 38.326 32.6648 38.1602 32.6085C38.1602 32.4685 37.8402 32.3485 38.1602 32.2885C38.4802 32.2285 38.8602 32.2885 39.0402 31.8285C39.1667 31.6616 39.2352 31.458 39.2352 31.2485C39.2352 31.0391 39.1667 30.8354 39.0402 30.6685C38.9202 30.4885 38.7802 30.3485 38.6602 30.1685C38.5762 30.0549 38.519 29.9239 38.4927 29.7851C38.4664 29.6464 38.4717 29.5035 38.5082 29.367C38.5447 29.2306 38.6115 29.1041 38.7036 28.9971C38.7957 28.89 38.9107 28.805 39.0402 28.7485L39.8202 28.3685C40.1402 28.1885 40.5202 28.0485 40.8402 27.8685C41.0105 27.6898 41.1183 27.4605 41.1471 27.2152C41.176 26.97 41.1244 26.722 41.0002 26.5085ZM18.7002 31.3485L12.3002 21.8885L18.7002 25.8885L25.1002 21.8885L18.7002 31.3485ZM18.7002 24.7085L12.3002 20.7085L18.7002 9.50854L25.1002 20.7085L18.7002 24.7085Z" fill="white"/>
</svg>
