<svg width="156" height="48" viewBox="0 0 156 48" fill="none" xmlns="http://www.w3.org/2000/svg">
<path d="M42.0002 27.5088C41.8807 27.2406 41.7332 26.9859 41.5602 26.7488C40.5202 25.3888 39.4402 24.0488 38.3602 22.7488C37.6417 21.9191 37.2694 20.8451 37.3202 19.7488C37.5313 17.5678 37.4506 15.3684 37.0802 13.2088C36.719 10.9134 35.7212 8.76535 34.2002 7.00878C32.5432 5.12392 30.5035 3.61387 28.217 2.57926C25.9305 1.54466 23.4498 1.00927 20.9402 1.00878C18.2508 0.930923 15.5726 1.38635 13.0602 2.34878C9.2882 3.693 6.0066 6.13853 3.64016 9.36878C2.11226 11.506 1.24321 14.0436 1.14016 16.6688C1.11515 18.6487 1.40545 20.6201 2.00016 22.5088C2.72016 24.7488 3.68016 26.9088 4.56016 29.0888C5.48016 31.182 6.28143 33.3254 6.96016 35.5088C7.88214 38.4106 7.84005 41.5329 6.84016 44.4088C6.84016 44.4088 6.84016 44.5488 6.84016 44.6688C6.76794 44.8357 6.7327 45.0163 6.73688 45.1981C6.74106 45.3799 6.78454 45.5587 6.86435 45.7221C6.94416 45.8855 7.0584 46.0297 7.19923 46.1448C7.34005 46.2599 7.50412 46.3431 7.68016 46.3888C10.4634 47.0861 13.3343 47.3692 16.2002 47.2288C19.0151 47.3618 21.835 47.106 24.5802 46.4688C25.0197 46.33 25.41 46.0676 25.7043 45.7129C25.9987 45.3583 26.1847 44.9263 26.2402 44.4688C26.331 44.0235 26.4649 43.5881 26.6402 43.1688C26.8284 42.74 27.1333 42.3727 27.5202 42.1088C28.112 41.7158 28.8099 41.5134 29.5202 41.5288C30.5548 41.5356 31.5863 41.6428 32.6002 41.8488C33.5002 41.9688 34.3402 42.1088 35.2202 42.1688C35.6331 42.2118 36.0504 42.1584 36.4391 42.0126C36.8278 41.8668 37.1774 41.6327 37.4602 41.3288C37.9403 40.8324 38.2703 40.2103 38.4118 39.5343C38.5534 38.8583 38.5008 38.1561 38.2602 37.5088C38.1608 37.2341 38.1438 36.9363 38.2114 36.6521C38.2789 36.3678 38.4279 36.1095 38.6402 35.9088C38.8851 35.6778 39.1457 35.4639 39.4202 35.2688C39.5552 35.1638 39.661 35.0259 39.7275 34.8683C39.7941 34.7108 39.8191 34.5388 39.8002 34.3688C39.773 34.1958 39.6989 34.0335 39.5861 33.8995C39.4733 33.7656 39.326 33.665 39.1602 33.6088C39.1602 33.4688 38.8402 33.3488 39.1602 33.2888C39.4802 33.2288 39.8602 33.2888 40.0402 32.8288C40.1667 32.6619 40.2352 32.4582 40.2352 32.2488C40.2352 32.0394 40.1667 31.8357 40.0402 31.6688C39.9202 31.4888 39.7802 31.3488 39.6602 31.1688C39.5762 31.0552 39.519 30.9241 39.4927 30.7854C39.4664 30.6466 39.4717 30.5037 39.5082 30.3673C39.5447 30.2308 39.6115 30.1044 39.7036 29.9973C39.7957 29.8902 39.9107 29.8053 40.0402 29.7488L40.8202 29.3688C41.1402 29.1888 41.5202 29.0488 41.8402 28.8688C42.0105 28.69 42.1183 28.4607 42.1471 28.2155C42.176 27.9702 42.1244 27.7222 42.0002 27.5088ZM19.7002 32.3488L13.3002 22.8888L19.7002 26.8888L26.1002 22.8888L19.7002 32.3488ZM19.7002 25.7088L13.3002 21.7088L19.7002 10.5088L26.1002 21.7088L19.7002 25.7088Z" fill="url(#paint0_linear_5394_8760)"/>
<path d="M61.0605 13.4812V19.0612H59.0605V5.28125H61.4406C62.3185 5.25463 63.1968 5.32167 64.0605 5.48125C64.6498 5.65891 65.195 5.95876 65.6606 6.36125C66.0266 6.75106 66.3108 7.21032 66.4963 7.71186C66.6818 8.2134 66.7649 8.74705 66.7405 9.28125C66.7659 9.83943 66.6638 10.3961 66.4421 10.9089C66.2203 11.4218 65.8846 11.8774 65.4605 12.2412C64.4719 12.9968 63.2419 13.3665 62.0005 13.2812L60.9806 13.4012L61.0605 13.4812ZM61.0605 11.4812H61.8405C63.8405 11.4812 64.7206 10.7812 64.7206 9.32125C64.7206 7.86125 63.6205 7.28125 61.7005 7.28125H60.9806V11.5612L61.0605 11.4812ZM73.4205 13.0812L77.5806 18.9212H75.0005L71.0005 13.3412H70.6206V18.9212H68.6206V5.28125H71.0005C72.3768 5.18936 73.7455 5.54735 74.9006 6.30125C75.3379 6.66727 75.6819 7.13194 75.9045 7.657C76.127 8.18205 76.2216 8.75246 76.1805 9.32125C76.1867 10.2187 75.8908 11.0922 75.3405 11.8012C75.1189 12.1535 74.8268 12.4562 74.4826 12.6902C74.1385 12.9242 73.7496 13.0846 73.3405 13.1612L73.4205 13.0812ZM70.9205 11.5612H71.5605C73.5605 11.5612 74.4406 10.8412 74.4406 9.32125C74.4406 7.80125 73.4005 7.28125 71.5406 7.28125H70.8405L70.9205 11.5612ZM78.7405 11.9412C78.7294 11.0364 78.9028 10.1388 79.2501 9.30325C79.5974 8.46766 80.1113 7.71161 80.7606 7.08125C81.4311 6.43157 82.2231 5.9205 83.0914 5.57731C83.9596 5.23413 84.8871 5.06556 85.8205 5.08125C86.7547 5.07332 87.6806 5.25741 88.5407 5.62209C89.4008 5.98677 90.1768 6.52427 90.8205 7.20125C91.4924 7.84371 92.0254 8.61711 92.3866 9.47365C92.7478 10.3302 92.9295 11.2517 92.9205 12.1812C92.9275 13.1135 92.745 14.0374 92.384 14.8969C92.023 15.7564 91.4911 16.5336 90.8205 17.1812C90.15 17.8309 89.358 18.342 88.4897 18.6852C87.6215 19.0284 86.694 19.1969 85.7606 19.1812C84.0313 19.2027 82.3584 18.5665 81.0806 17.4012C80.2934 16.7486 79.666 15.9245 79.2466 14.9919C78.8271 14.0594 78.6266 13.0432 78.6606 12.0212L78.7405 11.9412ZM80.7405 12.0612C80.7219 12.7636 80.8491 13.4621 81.1142 14.1127C81.3793 14.7633 81.7764 15.3519 82.2805 15.8412C83.1959 16.7681 84.438 17.2994 85.7405 17.3212C86.407 17.3344 87.069 17.2097 87.6851 16.955C88.3011 16.7004 88.8579 16.3212 89.3205 15.8412C89.7966 15.3632 90.1726 14.7951 90.4267 14.1701C90.6808 13.5452 90.8079 12.8759 90.8006 12.2012C90.8164 11.5225 90.6932 10.8477 90.4387 10.2183C90.1842 9.58892 89.8037 9.01821 89.3205 8.54125C88.8615 8.05794 88.3049 7.6778 87.6876 7.42609C87.0704 7.17437 86.4067 7.05682 85.7405 7.08125C85.0758 7.0679 84.4154 7.19053 83.7998 7.44159C83.1842 7.69265 82.6264 8.06686 82.1606 8.54125C81.6788 9.00568 81.2998 9.5661 81.0483 10.1862C80.7968 10.8064 80.6783 11.4724 80.7005 12.1412L80.7405 12.0612ZM94.9006 11.9412C94.8758 11.0245 95.0407 10.1125 95.3849 9.26247C95.729 8.41241 96.245 7.6426 96.9006 7.00125C97.5711 6.35157 98.3631 5.8405 99.2314 5.49732C100.1 5.15413 101.027 4.98556 101.961 5.00125C102.895 4.99332 103.821 5.17741 104.681 5.54209C105.541 5.90677 106.317 6.44427 106.961 7.12125C107.632 7.76371 108.165 8.53711 108.527 9.39365C108.888 10.2502 109.069 11.1717 109.061 12.1012C109.068 13.0335 108.885 13.9574 108.524 14.8169C108.163 15.6764 107.631 16.4536 106.961 17.1012C105.66 18.455 103.877 19.2388 102.001 19.2812C100.11 19.2707 98.3015 18.511 96.9706 17.1688C95.6396 15.8266 94.8952 14.0114 94.9006 12.1212V11.9412ZM96.9006 12.0612C96.8819 12.7636 97.0091 13.4621 97.2742 14.1127C97.5393 14.7633 97.9364 15.3519 98.4406 15.8412C99.3559 16.7681 100.598 17.2994 101.901 17.3212C102.567 17.3344 103.229 17.2097 103.845 16.955C104.461 16.7004 105.018 16.3212 105.481 15.8412C106.427 14.8674 106.952 13.5594 106.941 12.2012C106.959 11.524 106.839 10.85 106.588 10.2207C106.337 9.59138 105.96 9.0199 105.481 8.54125C105.035 8.06767 104.495 7.69298 103.896 7.44147C103.296 7.18995 102.651 7.06723 102.001 7.08125C101.335 7.07167 100.674 7.19798 100.058 7.45244C99.4426 7.70691 98.8854 8.08419 98.4205 8.56125C97.9334 9.02041 97.5468 9.57564 97.2851 10.1919C97.0235 10.8081 96.8925 11.4718 96.9006 12.1412V12.0612ZM118.481 7.28125H113.741V10.5412H118.341V12.5412H113.741V19.0212H111.741V5.28125H118.541V7.28125H118.481ZM125.761 12.0212C125.752 11.0959 125.937 10.179 126.302 9.32858C126.667 8.47819 127.204 7.71291 127.881 7.08125C128.55 6.43067 129.342 5.91902 130.211 5.57577C131.079 5.23253 132.007 5.06446 132.941 5.08125C133.882 5.05988 134.817 5.23366 135.688 5.59164C136.559 5.94962 137.346 6.48404 138.001 7.16125C138.654 7.81224 139.169 8.58946 139.513 9.4456C139.856 10.3017 140.022 11.2189 140.001 12.1412C140.021 13.0663 139.854 13.9859 139.51 14.8451C139.166 15.7042 138.653 16.4851 138.001 17.1412C137.33 17.7909 136.538 18.302 135.67 18.6452C134.801 18.9884 133.874 19.1569 132.941 19.1412C131.21 19.1688 129.535 18.5317 128.261 17.3612C127.465 16.7198 126.827 15.9054 126.394 14.9801C125.96 14.0548 125.744 13.0428 125.761 12.0212ZM127.761 12.1412C127.734 13.4997 128.243 14.814 129.18 15.7988C130.116 16.7836 131.402 17.3594 132.761 17.4012C133.427 17.4144 134.089 17.2897 134.705 17.035C135.321 16.7804 135.878 16.4012 136.341 15.9212C136.814 15.4422 137.187 14.8735 137.438 14.2485C137.688 13.6234 137.812 12.9546 137.801 12.2812C137.819 11.604 137.699 10.93 137.448 10.3007C137.197 9.67138 136.82 9.0999 136.341 8.62125C135.881 8.13794 135.325 7.7578 134.708 7.50609C134.09 7.25437 133.427 7.13682 132.761 7.16125C132.093 7.14868 131.43 7.27158 130.811 7.52252C130.192 7.77346 129.631 8.14723 129.161 8.62125C128.71 9.08664 128.36 9.63862 128.129 10.2437C127.899 10.8488 127.794 11.4944 127.821 12.1412H127.761ZM149.321 7.28125H144.581V10.5412H149.201V12.5412H144.581V19.0212H142.581V5.28125H149.401V7.28125H149.321ZM61.0605 34.1612H66.9406V28.8612H68.9406V42.4812H66.9406V36.0812H61.0605V42.4212H59.0605V28.7812H61.0605V34.1612ZM74.3605 28.8612V37.1212C74.2964 38.0132 74.4982 38.9041 74.9406 39.6812C75.2118 40.0536 75.5712 40.3527 75.9867 40.5516C76.4021 40.7506 76.8605 40.8433 77.3205 40.8212C77.7861 40.8412 78.2494 40.7478 78.6709 40.5493C79.0924 40.3507 79.4595 40.0528 79.7405 39.6812C80.1829 38.9041 80.3847 38.0132 80.3205 37.1212V28.8612H82.3205V37.6812C82.3467 38.3401 82.2416 38.9977 82.0116 39.6156C81.7816 40.2336 81.4311 40.7998 80.9806 41.2812C80.5056 41.7863 79.9324 42.1888 79.296 42.464C78.6597 42.7391 77.9738 42.8811 77.2805 42.8812C76.5888 42.8906 75.9029 42.7528 75.2685 42.477C74.634 42.2011 74.0655 41.7936 73.6005 41.2812C73.15 40.7998 72.7995 40.2336 72.5695 39.6156C72.3394 38.9977 72.2344 38.3401 72.2606 37.6812V28.8612H74.3605ZM85.1805 42.4812L88.0005 27.8212L92.6805 38.4612L97.5406 27.8212L100.101 42.4812H98.0005L96.7206 34.2212L92.7206 43.1212L88.8205 34.2212L87.3405 42.4812H85.1805ZM110.981 39.1612H105.101L103.561 42.4212H101.321L108.101 28.0212L114.641 42.4212H112.401L110.981 39.1612ZM110.221 37.1612L108.221 32.4812L106.001 37.2812L110.221 37.1612ZM116.221 42.3412V27.7412L126.221 38.1212V28.7212H128.221V43.2812L118.221 32.9012V42.4412H116.221V42.3412ZM133.621 28.7812V42.4812H131.621V28.8612L133.621 28.7812ZM140.601 30.7812V42.4812H138.601V30.7812H135.501V28.7812H143.821V30.7812H140.601ZM149.241 36.6012L144.761 28.8612H147.141L150.281 34.3012L153.401 28.8612H155.781L151.301 36.6012V42.4812H149.261V36.6012H149.241Z" fill="url(#paint1_linear_5394_8760)"/>
<defs>
<linearGradient id="paint0_linear_5394_8760" x1="1.12016" y1="24.0088" x2="42.1602" y2="24.0088" gradientUnits="userSpaceOnUse">
<stop stop-color="#FF993B"/>
<stop offset="1" stop-color="#FF8CA7"/>
</linearGradient>
<linearGradient id="paint1_linear_5394_8760" x1="59.0005" y1="24.1212" x2="155.861" y2="24.1212" gradientUnits="userSpaceOnUse">
<stop stop-color="#FF993B"/>
<stop offset="1" stop-color="#FF8CA7"/>
</linearGradient>
</defs>
</svg>
