<svg viewBox="0 0 29 32" xmlns="http://www.w3.org/2000/svg">
<path d="M28.2635 18.3357C28.1809 18.1502 28.0789 17.974 27.9591 17.81C27.2398 16.8693 26.4928 15.9424 25.7457 15.0432C25.2488 14.4694 24.9912 13.7265 25.0264 12.9682C25.1724 11.4596 25.1166 9.93832 24.8604 8.44452C24.6106 6.85683 23.9204 5.37105 22.8683 4.15604C21.7222 2.8523 20.3113 1.80782 18.7298 1.09219C17.1483 0.376569 15.4324 0.00624625 13.6965 0.00590379C11.8363 -0.047949 9.98382 0.267064 8.24597 0.932769C5.63695 1.86255 3.3671 3.5541 1.73025 5.78843C0.673421 7.26672 0.0723079 9.02197 0.00102941 10.8378C-0.0162682 12.2073 0.184528 13.5708 0.595883 14.8772C1.0939 16.4266 1.75792 17.9207 2.36661 19.4286C3.00297 20.8764 3.5572 22.359 4.02667 23.8692C4.66439 25.8764 4.63527 28.036 3.94366 30.0253C3.94366 30.0253 3.94366 30.1221 3.94366 30.2051C3.89371 30.3205 3.86934 30.4454 3.87222 30.5712C3.87511 30.697 3.90519 30.8206 3.9604 30.9336C4.0156 31.0467 4.09462 31.1464 4.19203 31.226C4.28943 31.3056 4.40292 31.3632 4.52468 31.3948C6.44983 31.8772 8.4356 32.0729 10.4179 31.9758C12.365 32.0678 14.3155 31.8909 16.2142 31.4501C16.5183 31.3541 16.7882 31.1726 16.9918 30.9273C17.1954 30.682 17.3241 30.3832 17.3625 30.0667C17.4253 29.7587 17.5179 29.4576 17.6391 29.1676C17.7693 28.871 17.9803 28.6169 18.2478 28.4344C18.6572 28.1626 19.1399 28.0226 19.6312 28.0332C20.3468 28.0379 21.0603 28.112 21.7616 28.2545C22.3841 28.3375 22.9651 28.4344 23.5738 28.4759C23.8594 28.5056 24.1481 28.4687 24.417 28.3678C24.6858 28.267 24.9276 28.1051 25.1232 27.8948C25.4553 27.5515 25.6836 27.1212 25.7815 26.6536C25.8794 26.1861 25.843 25.7004 25.6766 25.2526C25.6078 25.0626 25.5961 24.8566 25.6428 24.66C25.6895 24.4634 25.7926 24.2847 25.9394 24.1459C26.1089 23.9861 26.2891 23.8382 26.4789 23.7032C26.5723 23.6306 26.6455 23.5352 26.6915 23.4262C26.7376 23.3172 26.7549 23.1983 26.7418 23.0807C26.7229 22.961 26.6718 22.8488 26.5937 22.7561C26.5157 22.6635 26.4138 22.5939 26.2991 22.555C26.2991 22.4582 26.0777 22.3752 26.2991 22.3337C26.5204 22.2922 26.7833 22.3337 26.9078 22.0155C26.9953 21.9 27.0427 21.7592 27.0427 21.6143C27.0427 21.4694 26.9953 21.3286 26.9078 21.2131C26.8248 21.0886 26.7279 20.9918 26.6449 20.8673C26.5869 20.7887 26.5473 20.6981 26.5291 20.6021C26.5109 20.5061 26.5146 20.4072 26.5398 20.3129C26.5651 20.2185 26.6113 20.131 26.675 20.057C26.7387 19.9829 26.8182 19.9242 26.9078 19.8851L27.4473 19.6222C27.6686 19.4977 27.9315 19.4009 28.1528 19.2764C28.2707 19.1527 28.3452 18.9942 28.3651 18.8245C28.3851 18.6549 28.3494 18.4833 28.2635 18.3357ZM12.8388 21.6835L8.41198 15.1401L12.8388 17.9068L17.2656 15.1401L12.8388 21.6835ZM12.8388 17.0906L8.41198 14.3239L12.8388 6.57696L17.2656 14.3239L12.8388 17.0906Z" fill="url(#paint0_linear_4611_28804)"/>
<defs>
<linearGradient id="paint0_linear_4611_28804" x1="-0.0128044" y1="15.9148" x2="28.3742" y2="15.9148" gradientUnits="userSpaceOnUse">
<stop stop-color="#FF993B"/>
<stop offset="1" stop-color="#FF8CA7"/>
</linearGradient>
</defs>
</svg>
