<svg viewBox="0 0 72 74" xmlns="http://www.w3.org/2000/svg">
<path d="M0.488281 15.7617H5.00185V36.7925H0.488281V15.7617Z" fill="url(#paint0_linear_401_5)"/>
<path d="M30.1563 73.9256C25.6686 74.1436 21.1731 73.708 16.8108 72.6325C16.3148 72.4813 15.8563 72.2272 15.4653 71.8866C15.0743 71.5461 14.7596 71.1268 14.5418 70.6563C14.227 69.8735 14.227 68.9993 14.5418 68.2165C14.5511 68.1355 14.5511 68.0536 14.5418 67.9726V67.7286C15.9933 63.6588 16.0534 59.2225 14.7126 55.115C13.6804 51.8504 12.4584 48.6488 11.0529 45.5267C10.8333 44.9899 10.6138 44.4288 10.3698 43.892L10.2966 43.3553C10.1771 43.1683 10.0995 42.9576 10.0691 42.7377C10.0388 42.5178 10.0564 42.294 10.1208 42.0816C10.1852 41.8692 10.2949 41.6732 10.4422 41.5072C10.5896 41.3412 10.7711 41.2091 10.9744 41.12C11.1776 41.0308 11.3978 40.9867 11.6197 40.9908C11.8416 40.9948 12.0601 41.0469 12.2599 41.1434C12.4598 41.2399 12.6364 41.3785 12.7777 41.5497C12.9189 41.721 13.0213 41.9208 13.0779 42.1354L13.2487 42.5258C13.4683 43.0869 13.7123 43.6237 13.9318 44.1604C15.3939 47.3959 16.6727 50.7111 17.7623 54.0903C19.24 58.7925 19.1801 63.8434 17.5915 68.5093C17.5809 68.5575 17.5809 68.6075 17.5915 68.6557V68.8265L17.4451 69.1192C17.4276 69.1575 17.4185 69.1991 17.4185 69.2412C17.4185 69.2833 17.4276 69.3249 17.4451 69.3632C17.528 69.4964 17.6591 69.5925 17.8111 69.6316C21.8951 70.6331 26.1029 71.0358 30.3027 70.8271C34.4485 71.0238 38.6018 70.6544 42.6479 69.7292C43.0283 69.5967 43.3655 69.3633 43.6234 69.0538C43.8813 68.7444 44.0501 68.3706 44.1118 67.9726C44.2417 67.1294 44.4881 66.3083 44.8437 65.5328C45.2547 64.6346 45.9046 63.8666 46.7223 63.3126C47.8587 62.5623 49.191 62.1634 50.5528 62.1659C51.7795 62.1372 53.0059 62.2353 54.2124 62.4587L55.4811 62.6539L56.3838 62.7758C57.4085 62.9222 58.3844 63.0686 59.4091 63.1418C59.8025 63.1794 60.1993 63.1288 60.5707 62.9937C60.9421 62.8587 61.2787 62.6426 61.5561 62.3611C62.1324 61.8163 62.5382 61.116 62.7244 60.3452C62.9106 59.5744 62.8692 58.7661 62.6052 58.0183C62.3638 57.3284 62.3275 56.5833 62.5007 55.8732C62.6739 55.1631 63.0492 54.5184 63.5811 54.0171C63.8863 53.7102 64.2124 53.4249 64.557 53.1632H64.3131L63.9715 52.4068C63.7575 52.1943 63.6056 51.9274 63.5319 51.6349C63.4583 51.3424 63.4658 51.0354 63.5536 50.7468C63.6414 50.4583 63.8062 50.1992 64.0303 49.9973C64.2544 49.7954 64.5293 49.6584 64.8254 49.6011H65.1914L64.9718 49.3083C64.8382 49.1547 64.7159 48.9916 64.6058 48.8204C64.3823 48.4599 64.2346 48.0576 64.1717 47.6382C64.1088 47.2187 64.132 46.7908 64.2399 46.3806C64.3566 45.9768 64.5556 45.6014 64.8243 45.2781C65.093 44.9548 65.4256 44.6906 65.8013 44.502L66.9724 43.9164L67.8507 43.4773L68.4119 43.2089V43.0869C68.4263 43.0144 68.4263 42.9398 68.4119 42.8673C68.2732 42.5697 68.1099 42.2841 67.9239 42.0134C66.3381 39.964 64.679 37.8902 63.0444 35.914C61.7167 34.336 61.0366 32.3133 61.1414 30.2537C61.4424 27.0555 61.3194 23.8315 60.7754 20.6654C60.2811 17.4455 58.895 14.4282 56.7742 11.9555C54.3893 9.22903 51.4537 7.03882 48.161 5.52912C44.8683 4.01942 41.293 3.2245 37.6708 3.19671C29.5548 3.01129 21.6954 6.04627 15.8105 11.6383C15.5182 11.9274 15.1237 12.0895 14.7126 12.0895C14.3015 12.0895 13.907 11.9274 13.6147 11.6383C13.4686 11.4952 13.3526 11.3244 13.2734 11.1359C13.1941 10.9473 13.1533 10.7449 13.1533 10.5404C13.1533 10.3359 13.1941 10.1335 13.2734 9.94497C13.3526 9.75645 13.4686 9.58563 13.6147 9.44252C16.8883 6.28757 20.7745 3.83794 25.0328 2.2452C29.0561 0.710053 33.3418 -0.0194361 37.6464 0.0982038C41.6883 0.126789 45.6783 1.01125 49.3537 2.69334C53.029 4.37543 56.3064 6.817 58.97 9.85728C61.5249 12.729 63.2164 16.2642 63.8495 20.0555C64.4616 23.4844 64.6175 26.9792 64.3131 30.4489C64.2618 31.7246 64.6979 32.972 65.5329 33.9378C67.1676 35.9384 68.8266 38.0122 70.4125 40.1104C70.7398 40.5504 71.018 41.0249 71.242 41.5255C71.6281 42.2475 71.727 43.0887 71.5188 43.8805C71.3107 44.6724 70.8109 45.3562 70.1197 45.7951H69.9733C69.6562 45.9902 69.339 46.1366 69.0462 46.283C68.8282 46.3658 68.6163 46.4636 68.4119 46.5758L67.2896 47.1369L67.4604 47.3565L67.8019 47.7957C68.186 48.2945 68.4062 48.9 68.4324 49.5291C68.4586 50.1581 68.2895 50.7798 67.9483 51.3089C67.8791 51.4446 67.7885 51.5681 67.6799 51.6749C67.9882 52.268 68.0861 52.9481 67.9575 53.604C67.829 54.26 67.4817 54.8529 66.9724 55.2858L66.6308 55.5541C66.3249 55.763 66.039 55.9999 65.7769 56.2617C65.6512 56.3654 65.5638 56.5082 65.5284 56.6673C65.4931 56.8264 65.5118 56.9927 65.5817 57.14C65.9854 58.4004 66.0398 59.7467 65.739 61.0356C65.4383 62.3245 64.7937 63.5077 63.8739 64.4593C63.2836 65.0895 62.5564 65.5757 61.7485 65.8802C60.9405 66.1848 60.0733 66.2997 59.2139 66.2159C58.0916 66.2159 57.0669 65.9719 55.9691 65.8256L55.1151 65.7036L53.7489 65.5084C52.7192 65.3204 51.671 65.2549 50.626 65.3132C49.8666 65.306 49.1212 65.5178 48.479 65.9231C48.1126 66.1642 47.8311 66.5141 47.6738 66.9235C47.4342 67.4528 47.262 68.0102 47.1615 68.5825C46.9805 69.5354 46.5377 70.4191 45.8827 71.1344C45.2277 71.8498 44.3864 72.3685 43.453 72.6325C39.1025 73.6801 34.6271 74.1153 30.1563 73.9256Z" fill="url(#paint1_linear_401_5)"/>
<path d="M9.39453 15.7617H16.909C23.9843 15.7617 29.1079 20.1045 29.1079 26.2771C29.1079 32.4497 24.0819 36.7925 16.909 36.7925H9.39453V15.7617ZM17.4946 32.6937C18.3842 32.7714 19.2803 32.6632 20.126 32.376C20.9716 32.0888 21.7482 31.6289 22.4066 31.0255C23.065 30.4221 23.5907 29.6884 23.9503 28.8709C24.3099 28.0535 24.4956 27.1702 24.4956 26.2771C24.4956 25.3841 24.3099 24.5008 23.9503 23.6833C23.5907 22.8659 23.065 22.1322 22.4066 21.5288C21.7482 20.9254 20.9716 20.4655 20.126 20.1783C19.2803 19.8911 18.3842 19.7829 17.4946 19.8605H13.8837V32.6937H17.4946Z" fill="url(#paint2_linear_401_5)"/>
<defs>
<linearGradient id="paint0_linear_401_5" x1="2.97684" y1="26.2771" x2="59.0183" y2="26.8383" gradientUnits="userSpaceOnUse">
<stop stop-color="#FF993B"/>
<stop offset="1" stop-color="#FF8CA7"/>
</linearGradient>
<linearGradient id="paint1_linear_401_5" x1="2.87969" y1="36.6947" x2="58.9212" y2="37.2559" gradientUnits="userSpaceOnUse">
<stop stop-color="#FF993B"/>
<stop offset="1" stop-color="#FF8CA7"/>
</linearGradient>
<linearGradient id="paint2_linear_401_5" x1="2.97794" y1="26.1795" x2="59.0194" y2="26.7163" gradientUnits="userSpaceOnUse">
<stop stop-color="#FF993B"/>
<stop offset="1" stop-color="#FF8CA7"/>
</linearGradient>
</defs>
</svg>
