<svg viewBox="0 0 22 22" fill="none" xmlns="http://www.w3.org/2000/svg">
<path d="M3.62133 9.66556C3.62133 8.99996 3.84042 8.3947 4.21917 7.91476L8.22853 11.9223C7.74024 12.301 7.13406 12.5201 6.47681 12.5201C4.89312 12.5192 3.61298 11.24 3.62133 9.66556ZM15.5473 12.5108C17.1227 12.5192 18.4028 11.239 18.4028 9.65627C18.4028 8.99996 18.1837 8.39377 17.805 7.90548L13.7956 11.913C14.2755 12.2917 14.8817 12.5108 15.5473 12.5108ZM18.6469 7.08021C19.2364 7.78759 19.5901 8.67969 19.5901 9.67298C19.5901 11.9037 17.779 13.7139 15.5473 13.7139C14.5624 13.7139 13.661 13.3602 12.9536 12.7708L11.0079 14.7156L9.06216 12.7708C8.35478 13.3602 7.46175 13.7139 6.46846 13.7139C4.2368 13.7139 2.42567 11.9037 2.42567 9.67298C2.42567 8.68805 2.77936 7.78666 3.36883 7.08021L2.45909 6.1714L1.59205 5.30436C0.581122 6.97067 0 8.91548 0 11.0042C0 17.0827 4.92654 22 10.9995 22C17.0716 22 21.9991 17.0744 21.9991 11.0042C22.0158 8.90806 21.4347 6.96325 20.4237 5.30436L18.6469 7.08021ZM10.9995 13.0325L2.27343 4.31014C2.51757 3.99823 2.77843 3.6956 3.04857 3.40968C5.05279 1.31356 7.87485 0 11.0079 0C14.1409 0 16.9704 1.31356 18.9672 3.40968C19.2448 3.68724 19.5066 3.99916 19.7256 4.30178L10.9995 13.0325ZM4.24423 4.23495L11.007 10.9958L17.7697 4.23495C15.9762 2.42474 13.5839 1.43145 11.007 1.43145C8.42998 1.43145 6.04701 2.42474 4.24423 4.23495Z" fill="#133629"/>
</svg>
